# xmcd
#
# Track frame offsets:
#	150
#	15600
#	33552
#	55987
#
# Disc length: 1000 seconds
#
# Revision: 1
# Processed by: cddbd v1.5.2PL0 Copyright (c) Steve Scherf et al.
# Submitted via: audiograbber 1.83.01
#
DISCID=2c03e604
DTITLE=Sound Of R.E.L.S. - Can't Wait [CDM)
DYEAR=1997
DGENRE=Dance
TTITLE0=Can't Wait (The Single Mix 95 BPM)
TTITLE1=Can't Wait (Original Sound Mix 95 BPM)
TTITLE2=Can't Wait (Strictly Club Monster Mix 127 BPM)
TTITLE3=Can't Wait (Chill Out Instrumental 95 BPM)
EXTD=TR.
EXTT0=
EXTT1=
EXTT2=
EXTT3=
PLAYORDER=
